<?xml version="1.0" encoding="iso-8859-1"?>
<!-- Generator: Adobe Illustrator 19.0.0, SVG Export Plug-In . SVG Version: 6.00 Build 0)  -->
<svg version="1.1" id="Capa_1" xmlns="http://www.w3.org/2000/svg" xmlns:xlink="http://www.w3.org/1999/xlink" x="0px" y="0px"
	 viewBox="0 0 512 512" style="enable-background:new 0 0 512 512;" xml:space="preserve">
<polyline style="fill:#D6C8B0;" points="434.434,279.082 434.434,27.147 115.312,27.147 115.312,366.293 "/>
<polyline style="fill:#F9EED7;" points="405.747,251.934 405.747,0 86.625,0 86.625,339.145 "/>
<path style="fill:#FFD15C;" d="M458.517,478.602V287.553c0-20.334-16.483-36.817-36.817-36.817H257.815
	c-15.138,0-28.732-9.265-34.268-23.354l-7.255-18.468c-5.535-14.089-19.13-23.354-34.268-23.354H90.3
	c-20.334,0-36.817,16.483-36.817,36.817v256.226c0,18.445,14.953,33.398,33.398,33.398H425.12
	C443.564,512,458.517,497.047,458.517,478.602z"/>
<path style="fill:#EDBB4C;" d="M75.286,478.602V222.376c0-20.334,16.483-36.817,36.817-36.817H90.3
	c-20.334,0-36.817,16.483-36.817,36.817v256.226c0,18.445,14.953,33.397,33.398,33.397h21.803
	C90.239,511.999,75.286,497.047,75.286,478.602z"/>
<circle style="fill:#DBCEBA;" cx="167.819" cy="80.225" r="35.468"/>
<path style="fill:#D6C8B0;" d="M155.241,80.227c0-15.582,10.052-28.806,24.022-33.569c-3.592-1.225-7.439-1.899-11.447-1.899
	c-19.589,0-35.468,15.879-35.468,35.468c0,19.588,15.879,35.468,35.468,35.468c4.007,0,7.855-0.674,11.447-1.899
	C165.293,109.033,155.241,95.808,155.241,80.227z"/>
<path style="fill:#FF525D;" d="M132.347,151.163c0-19.589,15.879-35.468,35.468-35.468s35.468,15.879,35.468,35.468"/>
<g>
	<path style="fill:#34ABE0;" d="M363.396,63.069H249.899c-4.515,0-8.176-3.661-8.176-8.176s3.661-8.176,8.176-8.176h113.497
		c4.517,0,8.176,3.661,8.176,8.176S367.913,63.069,363.396,63.069z"/>
	<path style="fill:#34ABE0;" d="M363.396,223.181h-46.573c-4.517,0-8.176-3.661-8.176-8.176s3.66-8.176,8.176-8.176h46.573
		c4.517,0,8.176,3.661,8.176,8.176S367.913,223.181,363.396,223.181z"/>
	<path style="fill:#34ABE0;" d="M363.396,183.154H249.899c-4.515,0-8.176-3.661-8.176-8.176s3.661-8.176,8.176-8.176h113.497
		c4.517,0,8.176,3.661,8.176,8.176S367.913,183.154,363.396,183.154z"/>
	<path style="fill:#34ABE0;" d="M363.396,103.097H249.899c-4.515,0-8.176-3.661-8.176-8.176c0-4.515,3.661-8.176,8.176-8.176
		h113.497c4.517,0,8.176,3.661,8.176,8.176C371.572,99.437,367.913,103.097,363.396,103.097z"/>
	<path style="fill:#34ABE0;" d="M363.396,143.126H249.899c-4.515,0-8.176-3.661-8.176-8.176s3.661-8.176,8.176-8.176h113.497
		c4.517,0,8.176,3.661,8.176,8.176S367.913,143.126,363.396,143.126z"/>
</g>
<g>
</g>
<g>
</g>
<g>
</g>
<g>
</g>
<g>
</g>
<g>
</g>
<g>
</g>
<g>
</g>
<g>
</g>
<g>
</g>
<g>
</g>
<g>
</g>
<g>
</g>
<g>
</g>
<g>
</g>
</svg>
