<svg id="Layer_1" enable-background="new 0 0 510.002 510.002" height="512" viewBox="0 0 510.002 510.002" width="512" xmlns="http://www.w3.org/2000/svg"><g><path d="m110.001 0v15c0 35.84-29.158 65-65 65-5.246 0-9.754 0-15 0v114.424c0 127.011 65.018 245.183 171.946 313.231.101.064 3.808 2.423 3.685 2.345h49.369l15-255-15-255c-8.059 0-136.941 0-145 0z" fill="#ff6326"/><path d="m308.056 507.655c107.155-68.191 171.945-186.491 171.945-313.231 0-13.91 0-100.479 0-114.424-5.246 0-9.754 0-15 0-35.84 0-65-29.158-65-65 0-5.246 0-9.754 0-15-8.059 0-136.941 0-145 0v510h49.369c.101-.064 3.809-2.423 3.686-2.345z" fill="#e20059"/><path d="m162.011 60-2.035 4.275c-1.373 1.985-15.623 41.851-61.424 63.663-.128.061-8.881 4.229-8.551 4.072v62.414c0 100.107 48.211 194.201 129.6 252.753.131.094 4.183 3.009 3.924 2.823h31.477l15-195-15-195c-11.298 0-81.657 0-92.991 0z" fill="#ecf9fb"/><path d="m290.402 447.177c81.262-58.462 129.599-152.497 129.599-252.753 0-7.579 0-54.807 0-62.414-.127-.061-8.881-4.229-8.551-4.072-25.94-12.354-47.033-33.445-59.388-59.388-.061-.127-4.229-8.88-4.072-8.55-11.297 0-81.656 0-92.989 0v390h31.477c.13-.094 4.183-3.009 3.924-2.823z" fill="#d8f1fb"/><path d="m227.436 198.598c-7.485 1.088-54.126 7.865-61.639 8.957 5.417 5.28 39.165 38.177 44.602 43.477-1.279 7.456-9.247 53.907-10.53 61.389 6.695-3.52 48.412-25.452 55.132-28.984l15-58.436-15-82.257c-3.348 6.782-24.205 49.046-27.565 55.854z" fill="#ffda2d"/><path d="m299.603 251.031c5.417-5.28 39.164-38.177 44.601-43.477-7.485-1.088-54.125-7.865-61.638-8.957-3.348-6.783-24.206-49.046-27.565-55.854v140.692c6.695 3.52 48.411 25.452 55.131 28.984-1.279-7.455-9.245-53.905-10.529-61.388z" fill="#fdbf00"/></g></svg>